<svg width="138" height="35" viewBox="0 0 138 35" fill="none" xmlns="http://www.w3.org/2000/svg">
<path d="M26.456 0.899998H35V34.5H26.456V8.772C25.144 8.772 24.008 9.252 23.048 10.212C22.12 11.14 21.656 12.26 21.656 13.572V34.5H13.784V13.572C13.784 12.26 13.304 11.14 12.344 10.212C11.416 9.252 10.28 8.772 8.936 8.772V34.5H0.44V0.899998H8.936C12.328 0.899998 15.256 2.068 17.72 4.404C20.184 2.068 23.096 0.899998 26.456 0.899998ZM73.1761 17.604C74.5841 19.492 75.2881 21.604 75.2881 23.94C75.2881 26.852 74.2481 29.348 72.1681 31.428C70.1201 33.476 67.6401 34.5 64.7281 34.5H64.6801H52.2481V0.803999H63.5761C63.9601 0.739998 64.3281 0.707997 64.6801 0.707997C67.6241 0.707997 70.1201 1.748 72.1681 3.828C74.2161 5.876 75.2401 8.356 75.2401 11.268C75.2401 13.636 74.5521 15.748 73.1761 17.604ZM60.7441 9.204V13.38H64.5361C64.5361 13.38 64.5521 13.38 64.5841 13.38C64.6481 13.38 64.6961 13.38 64.7281 13.38C64.7601 13.38 64.7761 13.38 64.7761 13.38C65.3201 13.38 65.7841 13.172 66.1681 12.756C66.5841 12.34 66.7921 11.844 66.7921 11.268C66.7921 10.692 66.5841 10.212 66.1681 9.828C65.7841 9.412 65.2881 9.204 64.6801 9.204H60.7441ZM64.7281 26.052C65.3041 26.052 65.7841 25.844 66.1681 25.428C66.5841 25.012 66.7921 24.516 66.7921 23.94C66.7921 23.364 66.6001 22.884 66.2161 22.5C65.8321 22.084 65.3521 21.86 64.7761 21.828C64.7761 21.828 64.7601 21.828 64.7281 21.828C64.7281 21.828 64.7121 21.828 64.6801 21.828H60.7441V26.052H64.6801H64.7281ZM113.182 0.899998V9.396H105.934V34.5H97.3899V9.396H90.1419V0.899998H113.182ZM137.22 34.5H128.724V0.899998H137.22V34.5Z" fill="white"/>
</svg>
